<svg data-v-fde0c5aa="" xmlns="http://www.w3.org/2000/svg" viewBox="0 0 300 300" class="iconLeftSlogan" preserveAspectRatio="none"><!----><defs data-v-fde0c5aa=""><linearGradient data-v-fde0c5aa="" gradientTransform="rotate(25)" id="7da0da39-2d61-422a-8123-7608ec2f61a6" x1="0%" y1="0%" x2="100%" y2="0%"><stop data-v-fde0c5aa="" offset="0%" stop-color="#30223A" stop-opacity="1"></stop><stop data-v-fde0c5aa="" offset="100%" stop-color="#F13800" stop-opacity="1"></stop></linearGradient></defs><rect data-v-fde0c5aa="" fill="url(#7da0da39-2d61-422a-8123-7608ec2f61a6)" x="0" y="0" width="300px" height="300px" class="logo-background-square"></rect><defs data-v-fde0c5aa=""><!----></defs><g data-v-fde0c5aa="" id="9570d401-9292-4911-84b8-e6089b9c026d" fill="#ffffff" transform="matrix(3.018411159515381,0,0,3.018411159515381,84.33082968087291,113.49457716105796)"><path d="M4.34 13.96C6.29 13.96 7.36 12.99 7.36 11.83C7.36 10.75 6.48 10.19 4.65 9.70C3.42 9.38 2.58 9.02 2.58 8.43C2.58 7.85 2.98 7.36 4.26 7.36C5.10 7.36 5.82 7.67 6.43 8.12L6.99 7.36C6.31 6.89 5.28 6.47 4.26 6.47C2.38 6.47 1.40 7.35 1.40 8.48C1.40 9.48 2.59 10.14 3.99 10.50C5.66 10.93 6.20 11.34 6.20 11.90C6.20 12.54 5.60 13.05 4.38 13.05C3.16 13.05 2.32 12.67 1.57 12.08L1.01 12.84C1.83 13.44 3.01 13.96 4.34 13.96ZM12.60 13.96C14.39 13.96 15.96 12.59 15.96 10.22C15.96 7.83 14.39 6.47 12.60 6.47C10.81 6.47 9.24 7.83 9.24 10.22C9.24 12.59 10.81 13.96 12.60 13.96ZM12.60 13.01C11.30 13.01 10.43 11.89 10.43 10.22C10.43 8.55 11.30 7.42 12.60 7.42C13.90 7.42 14.77 8.55 14.77 10.22C14.77 11.89 13.90 13.01 12.60 13.01ZM22.48 13.96C23.23 13.96 23.70 13.76 24.32 13.52L24.02 12.66C23.52 12.89 23.13 13.01 22.74 13.01C21.92 13.01 21.41 12.54 21.41 11.49L21.41 3.60L17.93 3.60L17.93 4.54L20.26 4.54L20.26 11.41C20.26 13.09 21.04 13.96 22.48 13.96ZM28.64 13.96C29.61 13.96 30.58 13.41 31.33 12.80L31.37 12.80L31.47 13.78L32.41 13.78L32.41 9.38C32.41 7.63 31.51 6.47 29.65 6.47C28.46 6.47 27.45 7.03 26.91 7.49L27.36 8.29C27.85 7.87 28.57 7.42 29.46 7.42C30.77 7.42 31.23 8.27 31.26 9.25C27.75 9.56 26.33 10.33 26.33 11.94C26.33 13.22 27.37 13.96 28.64 13.96ZM28.95 13.03C28.17 13.03 27.45 12.68 27.45 11.86C27.45 10.89 28.35 10.28 31.26 10.02L31.26 11.94C30.49 12.64 29.72 13.03 28.95 13.03ZM35.64 13.78L36.79 13.78L36.79 9.56C37.60 8.06 38.57 7.50 39.59 7.50C40.12 7.50 40.38 7.57 40.85 7.76L41.12 6.76C40.70 6.54 40.28 6.47 39.77 6.47C38.51 6.47 37.45 7.20 36.74 8.34L36.69 8.34L36.60 6.64L35.64 6.64ZM43.43 13.78L44.59 13.78L44.59 10.11L46.24 10.11C48.26 10.11 49.63 9.20 49.63 7.25C49.63 5.22 48.27 4.54 46.24 4.54L43.43 4.54ZM44.59 9.16L44.59 5.47L46.09 5.47C47.68 5.47 48.47 5.91 48.47 7.25C48.47 8.57 47.70 9.16 46.09 9.16ZM53.93 13.78L55.29 13.78L58.20 4.54L57.01 4.54L55.54 9.53C55.22 10.63 54.99 11.49 54.66 12.59L54.60 12.59C54.26 11.49 54.04 10.63 53.72 9.53L52.23 4.54L51.00 4.54Z"></path></g><defs data-v-fde0c5aa=""><!----></defs><g data-v-fde0c5aa="" id="72d7e85f-6238-42f8-86c4-90e85344cb87" stroke="none" fill="#ffffff" transform="matrix(2.0983219146728516,0,0,2.0983219146728516,23.615055770284624,116.4268476413636)"><path d="M18.396 26.495L7.807 15.905 18.432 5.28l.707.707-9.918 9.918 9.882 9.883z"></path><path d="M23.194 1v4.194H19V1h4.194m1-1H18v6.194h6.194V0zM23.194 26.806V31H19v-4.194h4.194m1-1H18V32h6.194v-6.194z"></path></g><defs data-v-fde0c5aa=""><!----></defs><g data-v-fde0c5aa="" id="20b6bf96-54a9-4b42-90b2-112545ecffbe" fill="#ffffff" transform="matrix(0.5422229170799255,0,0,0.5422229170799255,86.70048003738506,164.30640398467895)"><path d="M1.68 2.80ZM1.26 2.80L1.26 12.60L1.68 12.60L1.68 8.48L3.23 8.48L6.36 12.60L6.90 12.60L3.71 8.47C4.61 8.41 5.32 8.15 5.86 7.67C6.40 7.20 6.66 6.52 6.66 5.64C6.66 4.71 6.36 4.00 5.75 3.52C5.15 3.04 4.35 2.80 3.36 2.80ZM1.68 3.21L3.36 3.21C4.23 3.21 4.92 3.41 5.45 3.83C5.97 4.24 6.23 4.85 6.23 5.64C6.23 6.44 5.97 7.04 5.45 7.45C4.92 7.87 4.23 8.08 3.36 8.08L1.68 8.08ZM15.72 7.48L20.06 7.48L20.06 7.08L15.72 7.08L15.72 3.21L20.34 3.21L20.34 2.80L15.30 2.80L15.30 12.60L20.34 12.60L20.34 12.19L15.72 12.19ZM29.40 9.74L29.02 9.90C29.65 11.77 30.70 12.71 32.17 12.71C33.09 12.71 33.78 12.45 34.24 11.93C34.71 11.41 34.94 10.77 34.94 10.01C34.94 9.66 34.89 9.35 34.77 9.06C34.65 8.78 34.52 8.55 34.38 8.37C34.23 8.19 34.03 8.02 33.77 7.86C33.51 7.70 33.29 7.58 33.13 7.50C32.97 7.43 32.75 7.34 32.47 7.22C32.43 7.21 32.31 7.16 32.12 7.08C31.92 7.01 31.80 6.96 31.75 6.94C31.71 6.91 31.60 6.87 31.43 6.80C31.26 6.73 31.15 6.67 31.10 6.64C31.05 6.60 30.96 6.54 30.83 6.45C30.70 6.37 30.61 6.30 30.56 6.24C30.52 6.18 30.45 6.10 30.37 6.00C30.28 5.90 30.22 5.80 30.19 5.70C30.16 5.61 30.13 5.50 30.10 5.38C30.07 5.25 30.06 5.12 30.06 4.98C30.06 4.41 30.26 3.95 30.65 3.62C31.05 3.29 31.54 3.12 32.13 3.12C33.26 3.12 34.04 3.77 34.48 5.07L34.89 4.90C34.68 4.23 34.35 3.69 33.88 3.29C33.41 2.89 32.83 2.69 32.14 2.69C31.45 2.69 30.85 2.90 30.34 3.33C29.84 3.76 29.58 4.33 29.58 5.04C29.58 5.39 29.65 5.71 29.80 5.99C29.94 6.27 30.16 6.51 30.44 6.71C30.73 6.91 30.98 7.07 31.21 7.17C31.44 7.28 31.74 7.41 32.10 7.55C32.38 7.65 32.57 7.72 32.68 7.77C32.78 7.82 32.95 7.90 33.19 8.02C33.44 8.13 33.61 8.24 33.72 8.34C33.83 8.45 33.95 8.58 34.10 8.75C34.24 8.92 34.34 9.11 34.40 9.32C34.45 9.54 34.48 9.78 34.48 10.05C34.48 10.72 34.29 11.27 33.91 11.68C33.54 12.09 32.97 12.29 32.21 12.29C30.98 12.29 30.04 11.44 29.40 9.74ZM44.39 7.48L48.73 7.48L48.73 7.08L44.39 7.08L44.39 3.21L49.01 3.21L49.01 2.80L43.97 2.80L43.97 12.60L49.01 12.60L49.01 12.19L44.39 12.19ZM61.61 2.45L57.34 12.60L57.83 12.60L59.11 9.52L64.12 9.52L65.39 12.60L65.88 12.60ZM61.61 3.50L63.92 9.07L59.30 9.07ZM74.77 2.80ZM74.35 2.80L74.35 12.60L74.77 12.60L74.77 8.48L76.33 8.48L79.45 12.60L80.00 12.60L76.80 8.47C77.70 8.41 78.42 8.15 78.95 7.67C79.49 7.20 79.76 6.52 79.76 5.64C79.76 4.71 79.45 4.00 78.85 3.52C78.24 3.04 77.44 2.80 76.45 2.80ZM74.77 3.21L76.45 3.21C77.32 3.21 78.02 3.41 78.54 3.83C79.06 4.24 79.32 4.85 79.32 5.64C79.32 6.44 79.06 7.04 78.54 7.45C78.02 7.87 77.32 8.08 76.45 8.08L74.77 8.08ZM88.30 7.70C88.30 6.33 88.68 5.22 89.44 4.38C90.20 3.53 91.21 3.11 92.46 3.11C93.65 3.11 94.70 3.54 95.61 4.41L95.61 3.81C94.76 3.06 93.71 2.69 92.46 2.69C91.10 2.69 89.99 3.16 89.13 4.09C88.27 5.03 87.84 6.23 87.84 7.70C87.84 9.17 88.27 10.37 89.13 11.30C89.99 12.24 91.10 12.71 92.46 12.71C93.71 12.71 94.76 12.34 95.61 11.59L95.61 11.03C94.74 11.87 93.69 12.29 92.46 12.29C91.21 12.29 90.20 11.87 89.44 11.03C88.68 10.18 88.30 9.07 88.30 7.70ZM104.99 2.80L104.99 12.60L105.41 12.60L105.41 7.62L111.64 7.62L111.64 12.60L112.06 12.60L112.06 2.80L111.64 2.80L111.64 7.18L105.41 7.18L105.41 2.80ZM135.18 7.62C135.19 7.63 135.21 7.64 135.23 7.66C135.24 7.69 135.26 7.70 135.27 7.71L138.42 10.98C137.46 11.85 136.49 12.29 135.51 12.29C134.68 12.29 134.02 12.07 133.54 11.64C133.06 11.21 132.82 10.64 132.82 9.94C132.82 9.65 132.89 9.38 133.02 9.13C133.16 8.89 133.35 8.67 133.61 8.48C133.87 8.29 134.11 8.13 134.34 8.01C134.58 7.89 134.86 7.76 135.18 7.62ZM135.30 7.13C134.95 6.70 134.72 6.41 134.62 6.26C134.51 6.12 134.40 5.91 134.28 5.64C134.16 5.37 134.11 5.10 134.11 4.82C134.11 4.29 134.29 3.88 134.65 3.57C135.02 3.26 135.48 3.11 136.05 3.11C136.60 3.11 137.04 3.26 137.37 3.56C137.69 3.85 137.86 4.24 137.86 4.70C137.86 5.02 137.78 5.31 137.63 5.57C137.48 5.83 137.27 6.06 136.98 6.26C136.69 6.45 136.42 6.61 136.18 6.73C135.94 6.86 135.64 6.99 135.30 7.13ZM135.60 7.45C135.65 7.43 135.71 7.40 135.79 7.36C135.87 7.33 135.92 7.31 135.93 7.31C137.48 6.62 138.25 5.75 138.25 4.70C138.25 4.13 138.06 3.65 137.68 3.26C137.29 2.87 136.75 2.67 136.05 2.67C135.37 2.67 134.81 2.87 134.37 3.26C133.93 3.65 133.71 4.17 133.71 4.82C133.71 5.17 133.78 5.51 133.92 5.83C134.05 6.15 134.18 6.40 134.30 6.56C134.42 6.72 134.62 6.96 134.90 7.28C134.57 7.42 134.28 7.56 134.04 7.69C133.79 7.82 133.53 7.99 133.25 8.20C132.96 8.42 132.74 8.67 132.59 8.97C132.43 9.26 132.36 9.59 132.36 9.94C132.36 10.81 132.65 11.49 133.25 11.98C133.84 12.47 134.59 12.71 135.51 12.71C136.66 12.71 137.74 12.25 138.74 11.31L139.99 12.60L140.55 12.60L139.03 11.03C139.55 10.50 140.13 9.72 140.77 8.68L140.41 8.46C139.86 9.36 139.29 10.11 138.71 10.70ZM160.43 2.80L160.43 12.60L162.81 12.60C164.22 12.60 165.36 12.15 166.22 11.25C167.07 10.35 167.50 9.17 167.50 7.70C167.50 6.23 167.07 5.05 166.22 4.15C165.36 3.25 164.22 2.80 162.81 2.80ZM160.85 3.22L162.81 3.22C164.10 3.22 165.13 3.63 165.90 4.46C166.67 5.28 167.05 6.37 167.05 7.70C167.05 9.09 166.67 10.18 165.91 10.98C165.16 11.78 164.12 12.18 162.81 12.18L160.85 12.18ZM176.88 7.48L181.22 7.48L181.22 7.08L176.88 7.08L176.88 3.21L181.50 3.21L181.50 2.80L176.46 2.80L176.46 12.60L181.50 12.60L181.50 12.19L176.88 12.19ZM194.10 12.03L190.32 2.80L189.83 2.80L194.10 12.95L198.37 2.80L197.88 2.80ZM207.26 7.48L211.60 7.48L211.60 7.08L207.26 7.08L207.26 3.21L211.88 3.21L211.88 2.80L206.84 2.80L206.84 12.60L211.88 12.60L211.88 12.19L207.26 12.19ZM221.26 2.80L221.26 12.60L225.74 12.60L225.74 12.19L221.68 12.19L221.68 2.80ZM233.58 7.70C233.58 6.38 233.98 5.29 234.79 4.41C235.61 3.53 236.63 3.09 237.87 3.09C239.12 3.09 240.14 3.53 240.95 4.41C241.77 5.29 242.17 6.38 242.17 7.70C242.17 9.02 241.77 10.11 240.95 10.99C240.14 11.87 239.12 12.31 237.87 12.31C236.63 12.31 235.61 11.87 234.79 10.99C233.98 10.11 233.58 9.02 233.58 7.70ZM233.16 7.70C233.16 9.16 233.60 10.36 234.49 11.30C235.38 12.24 236.51 12.71 237.87 12.71C239.24 12.71 240.36 12.24 241.25 11.30C242.15 10.36 242.59 9.16 242.59 7.70C242.59 6.24 242.15 5.04 241.25 4.10C240.36 3.16 239.24 2.69 237.87 2.69C236.51 2.69 235.38 3.16 234.49 4.10C233.60 5.04 233.16 6.24 233.16 7.70ZM251.55 2.80L251.55 12.60L251.97 12.60L251.97 8.48L253.65 8.48C254.61 8.48 255.38 8.23 255.96 7.73C256.53 7.22 256.82 6.53 256.82 5.64C256.82 4.76 256.53 4.06 255.96 3.56C255.38 3.05 254.61 2.80 253.65 2.80ZM251.97 3.21L253.65 3.21C254.51 3.21 255.18 3.41 255.66 3.83C256.14 4.24 256.38 4.85 256.38 5.64C256.38 6.44 256.14 7.04 255.66 7.45C255.18 7.87 254.51 8.08 253.65 8.08L251.97 8.08ZM274.02 3.86L274.88 12.60L275.30 12.60L274.25 2.45L270.33 10.70L266.41 2.45L265.36 12.60L265.78 12.60L266.63 3.86L270.33 11.69ZM284.82 7.48L289.16 7.48L289.16 7.08L284.82 7.08L284.82 3.21L289.44 3.21L289.44 2.80L284.40 2.80L284.40 12.60L289.44 12.60L289.44 12.19L284.82 12.19ZM305.75 2.80L305.75 11.79L298.26 2.45L298.26 12.60L298.68 12.60L298.68 3.61L306.17 12.95L306.17 2.80ZM314.15 3.21L316.67 3.21L316.67 12.60L317.09 12.60L317.09 3.21L319.61 3.21L319.61 2.80L314.15 2.80Z"></path></g></svg>